<svg version="1.2" xmlns="http://www.w3.org/2000/svg" viewBox="0 0 20 16" width="20" height="16"><defs><clipPath clipPathUnits="userSpaceOnUse" id="cp1"><path d="m-995-1476h1440v5909h-1440z" /></clipPath></defs><style>.s0{fill:#000000}</style><g clip-path="url(#cp1)"><path class="s0" d="m19.6 0c-0.3 1.3-0.9 2.4-1.8 3.3q0 0.3 0 0.7c0 10.3-9.8 14.7-17.8 10.3c2.2 0.1 4.4-0.6 6.2-1.8c-8-3.6-4.4-11.6-4.4-11.6c0.9 1.3 2.1 2.3 3.5 3c1.4 0.7 2.9 1.1 4.5 1v-0.9c0-0.8 0.2-1.6 0.7-2.2c0.5-0.7 1.1-1.2 1.9-1.5c0.7-0.3 1.6-0.4 2.4-0.2c0.8 0.2 1.5 0.7 2 1.3q1.5-0.5 2.8-1.4z" /></g></svg>