<svg version="1.2" xmlns="http://www.w3.org/2000/svg" viewBox="0 0 20 20" width="20" height="20"><defs><clipPath clipPathUnits="userSpaceOnUse" id="cp1"><path d="m-925-1474h1440v5909h-1440z" /></clipPath></defs><style>.s0{fill:#010002}</style><g clip-path="url(#cp1)"><path class="s0" d="m20 10c0 5.1-3.8 9.4-8.8 10v-7.9h2.4l0.4-2.8h-2.8v-1.8c0-0.8 0.2-1.3 1.4-1.3h1.5v-2.5c-0.3 0-1.2-0.1-2.2-0.1c-2.1 0-3.6 1.3-3.6 3.7v2h-2.4v2.8h2.4v7.8c-4.7-0.8-8.3-4.9-8.3-9.9c0-5.5 4.5-10 10-10c5.5 0 10 4.5 10 10z" /></g></svg>